<svg xmlns="http://www.w3.org/2000/svg" viewBox="0 0 32 32"><title>3-DSLR Camera</title><g id="_3-DSLR_Camera" data-name="3-DSLR Camera"><path d="M29,6H24.78L24,2.76A1,1,0,0,0,23,2H9a1,1,0,0,0-1,.76L7.22,6H3A3,3,0,0,0,0,9V27a3,3,0,0,0,3,3H16V28H3a1,1,0,0,1-1-1V9A1,1,0,0,1,3,8H8a1,1,0,0,0,1-.76L9.78,4H22.22L23,7.24A1,1,0,0,0,24,8h5a1,1,0,0,1,1,1v9h2V9A3,3,0,0,0,29,6Z" fill="#384173"/><path d="M24,18a8,8,0,1,0-8,8V24a6,6,0,1,1,6-6Z" fill="#384173"/><path d="M16,14a4,4,0,1,0,4,4A4,4,0,0,0,16,14Zm0,6a2,2,0,1,1,2-2A2,2,0,0,1,16,20Z" fill="#384173"/><rect x="12" y="6" width="8" height="2" fill="#384173"/><polygon points="28 20 26 20 26 24 22 24 22 26 26 26 26 30 28 30 28 26 32 26 32 24 28 24 28 20" fill="#384173"/></g></svg>