<svg xmlns="http://www.w3.org/2000/svg" width="128" height="128" viewBox="0 0 128 128">
  <title>DOWNLOAD</title>
  <g>
    <g>
      <polygon points="92.485 103.801 35.509 103.801 35.509 24.199 79.664 24.199 92.485 37.021 92.485 103.801" fill="#e9f1f8"/>
      <polygon points="79.664 24.199 79.664 37.021 92.485 37.021 79.664 24.199" fill="#c5dcf7"/>
    </g>
    <g>
      <path d="M92.488,92.417a1.75,1.75,0,0,0-1.75,1.75v7.884H37.262v-76.1H47.785a1.75,1.75,0,0,0,0-3.5H35.512a1.751,1.751,0,0,0-1.75,1.75v79.6a1.751,1.751,0,0,0,1.75,1.75H92.488a1.75,1.75,0,0,0,1.75-1.75V94.167A1.75,1.75,0,0,0,92.488,92.417Z" fill="#001c5b"/>
      <path d="M92.488,84.625a1.749,1.749,0,0,0-1.75,1.75v1.25a1.75,1.75,0,0,0,3.5,0v-1.25A1.749,1.749,0,0,0,92.488,84.625Z" fill="#001c5b"/>
      <path d="M93.726,35.783,80.9,22.962a1.75,1.75,0,0,0-1.237-.513H61.875a1.75,1.75,0,0,0,0,3.5H77.917V37.021a1.75,1.75,0,0,0,1.75,1.75h5.166a1.75,1.75,0,0,0,0-3.5H81.417V28.424l9.321,9.322V80.375a1.75,1.75,0,0,0,3.5,0V37.021A1.75,1.75,0,0,0,93.726,35.783Z" fill="#001c5b"/>
      <path d="M54.125,25.949h1.507a1.75,1.75,0,0,0,0-3.5H54.125a1.75,1.75,0,0,0,0,3.5Z" fill="#001c5b"/>
      <path d="M70.708,71.375l2.9-2.9A1.75,1.75,0,0,0,71.13,66l-2.9,2.9a1.75,1.75,0,0,0,2.475,2.475Z" fill="#001c5b"/>
      <path d="M64,40.427a1.751,1.751,0,0,0-1.75,1.75V71.383L56.87,66A1.75,1.75,0,1,0,54.4,68.478l8.367,8.367a1.75,1.75,0,0,0,2.987-1.238V42.177A1.751,1.751,0,0,0,64,40.427Z" fill="#001c5b"/>
      <path d="M46.035,85.823a1.75,1.75,0,0,0,1.75,1.75h32.43a1.75,1.75,0,0,0,0-3.5H47.785A1.749,1.749,0,0,0,46.035,85.823Z" fill="#001c5b"/>
    </g>
  </g>
</svg>
