<?xml version="1.0" encoding="utf-8"?>
<!-- Generator: Adobe Illustrator 22.1.0, SVG Export Plug-In . SVG Version: 6.00 Build 0)  -->
<svg version="1.1" id="Layer_1" xmlns="http://www.w3.org/2000/svg" xmlns:xlink="http://www.w3.org/1999/xlink" x="0px" y="0px"
	 viewBox="0 0 256 256" style="enable-background:new 0 0 256 256;" xml:space="preserve">
<style type="text/css">
	.st0{fill:#D73735;}
	.st1{fill:#F85252;}
	.st2{fill:#EDAF85;}
	.st3{fill:#F7C09A;}
	.st4{fill:#D8D6D7;}
	.st5{fill:#FFFFFF;}
	.st6{fill:#1C868E;}
	.st7{fill:#40C4DF;}
	.st8{fill:#491352;}
	.st9{fill:#56C1B3;}
	.st10{fill:#7BEFE4;}
</style>
<g>
	<path class="st6" d="M229.539,60.048v124.4H26.459v-124.4c0-8.87,6.64-16.2,15.23-17.26c0.71-0.09,1.44-0.14,2.17-0.14h168.28
		C221.749,42.648,229.539,50.438,229.539,60.048z"/>
	<path class="st7" d="M229.539,60.048v124.4H41.689V42.788c0.71-0.09,1.44-0.14,2.17-0.14h168.28
		C221.749,42.648,229.539,50.438,229.539,60.048z"/>
	<path class="st9" d="M251.599,190.518v4.67c0,10.06-8.15,18.22-18.21,18.22H22.609c-10.06,0-18.21-8.16-18.21-18.22v-4.67
		c0-3.35,2.72-6.07,6.07-6.07h235.06C248.879,184.448,251.599,187.168,251.599,190.518z"/>
	<path class="st10" d="M251.599,190.518v4.67c0,10.06-8.15,18.22-18.21,18.22H37.839c-10.06,0-18.21-8.16-18.21-18.22v-4.67
		c0-3.35,2.72-6.07,6.07-6.07h219.83C248.879,184.448,251.599,187.168,251.599,190.518z"/>
	<path class="st4" d="M218.749,58.448v126h-181.5v-126c0-2.57,1.94-4.69,4.44-4.96c0.18-0.03,0.37-0.04,0.56-0.04h171.5
		C216.509,53.448,218.749,55.688,218.749,58.448z"/>
	<path class="st5" d="M218.749,58.448v126H52.479v-131h161.27C216.509,53.448,218.749,55.688,218.749,58.448z"/>
	<path class="st7" d="M229.539,60.048v124.4h-10.79v-126c0-2.76-2.24-5-5-5h-171.5c-0.19,0-0.38,0.01-0.56,0.04v-10.7
		c0.71-0.09,1.44-0.14,2.17-0.14h168.28C221.749,42.648,229.539,50.438,229.539,60.048z"/>
	<path class="st7" d="M196.5,80.181v77.5c0,2.76-2.24,5-5,5h-127c-2.76,0-5-2.24-5-5v-77.5c0-2.76,2.24-5,5-5h127
		C194.26,75.181,196.5,77.421,196.5,80.181z"/>
	<path class="st1" d="M196.5,80.181v13.43l-1.5,0.9H59.5v-14.33c0-2.76,2.24-5,5-5h127C194.26,75.181,196.5,77.421,196.5,80.181z"/>
	<path class="st1" d="M135.552,128.844l18.224-18.224c2.077-2.077,2.077-5.475,0-7.552c-2.077-2.077-5.475-2.077-7.552,0
		L128,121.292l-18.224-18.224c-2.077-2.077-5.475-2.077-7.552,0c-2.077,2.077-2.077,5.475,0,7.552l18.224,18.224l-18.224,18.223
		c-2.077,2.077-2.077,5.475,0,7.552c2.077,2.077,5.475,2.077,7.552,0L128,136.396l18.224,18.224c2.077,2.077,5.475,2.077,7.552,0
		c2.077-2.077,2.077-5.476,0-7.552L135.552,128.844z"/>
	<path class="st9" d="M156.328,184.574v5.111c0,5.172-4.201,9.373-9.373,9.373h-37.515c-5.172,0-9.373-4.201-9.373-9.373v-5.111
		H156.328z"/>
	<g>
		<path class="st8" d="M245.534,182.42h-13.989V60.023c0-10.697-8.703-19.399-19.4-19.399H43.855c-10.697,0-19.4,8.702-19.4,19.399
			V182.42H10.466c-4.45,0-8.07,3.62-8.07,8.07v4.675c0,11.145,9.066,20.211,20.211,20.211h210.787
			c11.145,0,20.211-9.066,20.211-20.211v-4.675C253.604,186.04,249.984,182.42,245.534,182.42z M28.455,60.023
			c0-8.491,6.908-15.399,15.4-15.399h168.289c8.492,0,15.4,6.908,15.4,15.399V182.42h-6.795V58.417c0-3.859-3.141-7-7-7H42.25
			c-3.859,0-7,3.141-7,7V182.42h-6.795V60.023z M39.25,182.417v-124c0-1.654,1.346-3,3-3h171.5c1.654,0,3,1.346,3,3v124H39.25z
			 M154.13,186.42v3.111c0,4.065-3.307,7.373-7.372,7.373h-37.516c-4.065,0-7.372-3.308-7.372-7.373v-3.111H154.13z
			 M249.604,195.165c0,8.938-7.272,16.211-16.211,16.211H22.606c-8.938,0-16.211-7.272-16.211-16.211v-4.675
			c0-2.244,1.826-4.07,4.07-4.07c10.781,0,77.813,0,87.404,0v3.111c0,6.271,5.102,11.373,11.372,11.373h37.516
			c6.271,0,11.372-5.102,11.372-11.373v-3.111c9.575,0,76.622,0,87.404,0c2.244,0,4.07,1.826,4.07,4.07V195.165z"/>
		<path class="st8" d="M191.5,73.167h-127c-3.859,0-7,3.141-7,7v77.5c0,3.859,3.141,7,7,7h127c3.859,0,7-3.141,7-7v-77.5
			C198.5,76.308,195.359,73.167,191.5,73.167z M194.5,157.667c0,1.654-1.346,3-3,3h-127c-1.654,0-3-1.346-3-3V96.5h133V157.667z
			 M194.5,92.5h-133V80.167c0-1.654,1.346-3,3-3h127c1.654,0,3,1.346,3,3V92.5z"/>
		<path class="st8" d="M100.811,156.023c2.86,2.86,7.518,2.861,10.38,0L128,139.213c18.058,18.06,17.984,18.957,22,18.957
			c6.5,0,9.811-7.906,5.189-12.527l-16.81-16.81l16.81-16.81c1.383-1.382,2.144-3.225,2.144-5.189c0-6.612-7.983-9.734-12.523-5.19
			L128,118.453l-16.81-16.81c-4.534-4.537-12.523-1.433-12.523,5.19c0,4.045,0.982,4.028,18.953,21.999l-16.81,16.81
			C97.948,148.505,97.948,153.161,100.811,156.023z M103.639,148.471l18.224-18.224c0.781-0.781,0.781-2.047,0-2.828
			c-19.884-19.884-19.195-18.671-19.195-20.585c0-3.101,3.737-4.32,5.695-2.362l18.224,18.224c0.781,0.781,2.047,0.781,2.828,0
			l18.224-18.224c1.96-1.96,5.695-0.736,5.695,2.362c0,1.915,0.668,0.722-19.195,20.585c-0.781,0.781-0.781,2.047,0,2.828
			l18.224,18.224c3.12,3.12-1.598,7.845-4.724,4.725l-18.224-18.225c-0.781-0.781-2.047-0.781-2.828,0l-18.224,18.225
			C105.239,156.313,100.517,151.593,103.639,148.471z"/>
	</g>
</g>
</svg>
