<?xml version="1.0" encoding="utf-8"?>
<!-- Generator: Adobe Illustrator 22.1.0, SVG Export Plug-In . SVG Version: 6.00 Build 0)  -->
<svg version="1.1" id="Icon_Set" xmlns="http://www.w3.org/2000/svg" xmlns:xlink="http://www.w3.org/1999/xlink" x="0px" y="0px"
	 viewBox="0 0 512 512" style="enable-background:new 0 0 512 512;" xml:space="preserve">
<style type="text/css">
	.st0{fill:#F0C48A;}
	.st1{fill:#FD919E;}
	.st2{fill:#4C4372;}
	.st3{fill:#D3E6F8;}
	.st4{fill:#A4CFF2;}
	.st5{fill:#7BABF1;}
	.st6{fill:#FFFFFF;}
	.st7{fill:#E8677D;}
	.st8{fill:none;stroke:#4C4372;stroke-width:12;stroke-linecap:round;stroke-linejoin:round;stroke-miterlimit:10;}
</style>
<g id="Search_Of_Symptoms">
	<g>
		<g>
			<circle class="st0" cx="256" cy="256" r="207"/>
		</g>
	</g>
	<g>
		<g>
			<path class="st6" d="M329.42,258.929h-48.704V226.37h-49.474v32.559H182.58c-20.792,0-37.647,16.855-37.647,37.647v73.707
				h222.135v-73.707C367.068,275.784,350.212,258.929,329.42,258.929z"/>
		</g>
		<g>
			<path class="st5" d="M320.669,185.938v-49.469c0-35.682-28.926-64.608-64.608-64.608h0c-35.682,0-64.608,28.926-64.608,64.608
				v49.469h20.175h90.347H320.669z"/>
		</g>
		<g>
			<path class="st2" d="M320.669,191.938H191.453c-3.313,0-6-2.686-6-6v-49.469c0-38.933,31.675-70.608,70.608-70.608
				s70.608,31.675,70.608,70.608v49.469C326.669,189.251,323.982,191.938,320.669,191.938z M197.453,179.938h117.216v-43.469
				c0-32.316-26.292-58.608-58.608-58.608s-58.608,26.292-58.608,58.608V179.938z"/>
		</g>
		<g>
			<path class="st3" d="M313.236,203.554H198.764c-10.952,0-19.83-8.878-19.83-19.83v0c0-10.952,8.878-19.83,19.83-19.83h114.471
				c10.952,0,19.83,8.878,19.83,19.83v0C333.066,194.676,324.187,203.554,313.236,203.554z"/>
		</g>
		<g>
			<path class="st2" d="M313.236,209.554H198.764c-14.243,0-25.83-11.587-25.83-25.83s11.587-25.83,25.83-25.83h114.472
				c14.243,0,25.83,11.587,25.83,25.83S327.479,209.554,313.236,209.554z M198.764,169.895c-7.625,0-13.83,6.204-13.83,13.83
				s6.204,13.83,13.83,13.83h114.472c7.625,0,13.83-6.204,13.83-13.83s-6.204-13.83-13.83-13.83H198.764z"/>
		</g>
		<g>
			<path class="st3" d="M329.421,258.929h-22.847c20.792,0,37.647,16.855,37.647,37.647v73.707h22.847v-73.707
				C367.068,275.784,350.212,258.929,329.421,258.929z"/>
		</g>
		<g>
			<g>
				<path class="st2" d="M190.04,376.283c-3.313,0-6-2.686-6-6v-37.769c0-3.314,2.687-6,6-6s6,2.686,6,6v37.769
					C196.04,373.597,193.354,376.283,190.04,376.283z"/>
			</g>
			<g>
				<path class="st2" d="M321.96,376.283c-3.313,0-6-2.686-6-6v-37.769c0-3.314,2.687-6,6-6s6,2.686,6,6v37.769
					C327.96,373.597,325.273,376.283,321.96,376.283z"/>
			</g>
		</g>
		<g>
			<path class="st2" d="M367.067,376.283H144.933c-3.313,0-6-2.686-6-6v-73.707c0-24.067,19.58-43.647,43.647-43.647h42.663V226.37
				c0-3.314,2.686-6,6-6h49.474c3.313,0,6,2.686,6,6v26.559h42.704c24.067,0,43.647,19.58,43.647,43.647v73.707
				C373.067,373.596,370.381,376.283,367.067,376.283z M150.933,364.283h210.135v-67.707c0-17.45-14.197-31.647-31.647-31.647
				h-48.704c-3.314,0-6-2.686-6-6V232.37h-37.474v26.559c0,3.314-2.686,6-6,6H182.58c-17.45,0-31.647,14.197-31.647,31.647V364.283z
				"/>
		</g>
		<g>
			<path class="st6" d="M278.546,128.56c-20.594,22.491-60.071,31.254-77.405,34.123c-0.427,2.775-0.65,5.618-0.65,8.513v25.821
				c0,30.657,24.852,55.509,55.509,55.509h0c30.657,0,55.509-24.852,55.509-55.509v-25.821c0-2.668-0.2-5.288-0.564-7.855
				C306.036,160.836,286.128,149.59,278.546,128.56z"/>
		</g>
		<g>
			<g>
				<path class="st2" d="M231.082,190.107c-3.313,0-6-2.686-6-6v-10.766c0-3.314,2.687-6,6-6s6,2.686,6,6v10.766
					C237.082,187.421,234.396,190.107,231.082,190.107z"/>
			</g>
			<g>
				<path class="st2" d="M280.918,190.107c-3.313,0-6-2.686-6-6v-10.766c0-3.314,2.687-6,6-6s6,2.686,6,6v10.766
					C286.918,187.421,284.231,190.107,280.918,190.107z"/>
			</g>
		</g>
		<g>
			<path class="st2" d="M256,258.527c-33.917,0-61.509-27.593-61.509-61.509v-25.821c0-3.15,0.242-6.322,0.72-9.426
				c0.395-2.563,2.392-4.583,4.951-5.007c15.742-2.605,54.462-10.963,73.959-32.255c1.418-1.549,3.544-2.245,5.604-1.831
				c2.06,0.412,3.754,1.872,4.466,3.848c6.906,19.156,25.771,29.578,29.483,31.472c1.74,0.888,2.938,2.568,3.212,4.502
				c0.414,2.917,0.623,5.843,0.623,8.697v25.821C317.509,230.934,289.917,258.527,256,258.527z M206.605,167.821
				c-0.076,1.124-0.114,2.251-0.114,3.376v25.821c0,27.299,22.21,49.509,49.509,49.509s49.509-22.21,49.509-49.509v-25.821
				c0-1.34-0.058-2.703-0.173-4.075c-7.052-4.042-20.509-13.255-28.766-28.388C265.188,148.384,243.978,160.961,206.605,167.821z"/>
		</g>
		<g>
			<g>
				<path class="st4" d="M322.698,436.662L322.698,436.662c-4.636,4.636-12.153,4.636-16.789,0l-69.715-69.715l16.789-16.789
					l69.715,69.715C327.334,424.509,327.334,432.026,322.698,436.662z"/>
			</g>
			<g>
				<path class="st2" d="M314.304,446.131c-4.577,0-9.153-1.742-12.638-5.226l-69.715-69.716c-1.125-1.125-1.757-2.651-1.757-4.243
					s0.632-3.117,1.757-4.243l16.79-16.789c2.343-2.343,6.142-2.343,8.485,0l69.715,69.715c6.968,6.968,6.968,18.306,0,25.275
					c0,0,0,0,0,0C323.457,444.389,318.88,446.131,314.304,446.131z M322.698,436.662h0.01H322.698z M244.679,366.947l65.473,65.473
					c2.289,2.289,6.015,2.29,8.304,0c2.29-2.29,2.29-6.015,0-8.304l-65.473-65.473L244.679,366.947z"/>
			</g>
			<g>
				<path class="st2" d="M299.041,435.794c-1.536,0-3.071-0.586-4.243-1.757c-2.343-2.343-2.343-6.142,0-8.485l16.789-16.79
					c2.343-2.343,6.142-2.343,8.485,0c2.343,2.343,2.343,6.142,0,8.485l-16.789,16.79
					C302.112,435.208,300.576,435.794,299.041,435.794z"/>
			</g>
			<g>
				<circle class="st3" cx="229.086" cy="343.05" r="60.071"/>
			</g>
			<g>
				<circle class="st6" cx="229.086" cy="343.05" r="38.977"/>
			</g>
			<g>
				<path class="st2" d="M229.086,409.121c-17.648,0-34.24-6.873-46.719-19.352c-12.479-12.479-19.352-29.071-19.352-46.719
					c0-17.648,6.873-34.24,19.352-46.719c25.76-25.761,67.676-25.761,93.438,0l0,0l0,0c12.479,12.479,19.352,29.071,19.352,46.719
					c0,17.648-6.873,34.24-19.352,46.719C263.327,402.249,246.735,409.121,229.086,409.121z M229.086,289.004
					c-13.846,0-27.693,5.271-38.234,15.812c-10.213,10.213-15.837,23.791-15.837,38.234c0,14.443,5.625,28.021,15.837,38.234
					c10.212,10.213,23.791,15.837,38.234,15.837s28.021-5.625,38.234-15.837c10.213-10.213,15.837-23.791,15.837-38.234
					c0-14.443-5.625-28.021-15.837-38.234l0,0C256.779,294.275,242.933,289.004,229.086,289.004z"/>
			</g>
			<g>
				<path class="st2" d="M229.086,388.006c-11.518,0-23.035-4.384-31.804-13.152c-17.536-17.537-17.536-46.071,0-63.607
					c17.537-17.536,46.07-17.536,63.607,0l0,0c17.536,17.537,17.536,46.071,0,63.607
					C252.122,383.622,240.604,388.006,229.086,388.006z M229.086,310.089c-8.445,0-16.89,3.215-23.318,9.643
					c-12.857,12.858-12.857,33.779,0,46.636c12.858,12.858,33.779,12.858,46.637,0c12.857-12.858,12.857-33.779,0-46.636
					C245.976,313.303,237.531,310.089,229.086,310.089z"/>
			</g>
		</g>
		<g>
			<g>
				<circle class="st1" cx="229.086" cy="343.05" r="14.297"/>
			</g>
			<g>
				<path class="st2" d="M229.086,363.347c-11.191,0-20.296-9.105-20.296-20.296c0-11.192,9.105-20.297,20.296-20.297
					s20.296,9.105,20.296,20.297C249.383,354.242,240.278,363.347,229.086,363.347z M229.086,334.754
					c-4.575,0-8.296,3.722-8.296,8.297s3.722,8.296,8.296,8.296s8.296-3.722,8.296-8.296S233.661,334.754,229.086,334.754z"/>
			</g>
		</g>
	</g>
</g>
</svg>
